<svg width="126" height="50" viewBox="0 0 126 50" fill="none" xmlns="http://www.w3.org/2000/svg">
<path d="M64.3922 15.1123V36.6187H59.0548V15.1123H64.3922Z" fill="black"/>
<path d="M77.7905 14.5833C84.1603 14.5833 89.3025 19.5368 89.3025 25.9887C89.3025 32.4583 84.1248 37.4999 77.7372 37.4999C71.3496 37.4999 66.1719 32.5112 66.1719 26.0592C66.1719 19.6249 71.4208 14.5833 77.7905 14.5833ZM77.7372 32.2467C81.1178 32.2467 83.6088 29.3204 83.6088 26.024C83.6088 22.7275 81.1178 19.8189 77.7372 19.8189C74.3565 19.8189 71.8656 22.7275 71.8656 26.024C71.8656 29.3204 74.3743 32.2467 77.7372 32.2467Z" fill="black"/>
<path d="M90.0141 30.2019L94.8894 29.0384C95.2453 31.6298 97.1134 32.5641 99.0885 32.5641C101.046 32.5641 101.757 31.4006 101.757 30.5016C101.757 29.7612 101.33 29.0561 99.9069 28.774L96.9355 28.157C93.377 27.4695 90.8504 25.2131 90.8504 21.758C90.8504 17.6506 94.5869 14.7419 98.8038 14.7419C104.248 14.7419 106.49 18.1618 106.882 21L102.095 22.3574C101.846 20.5945 100.761 19.3253 98.786 19.3253C97.0779 19.3253 96.2772 20.4711 96.2772 21.3173C96.2772 22.0401 96.6153 22.8509 97.8786 23.0978L100.992 23.697C105.049 24.4904 107.291 26.9759 107.291 30.2195C107.291 33.7452 104.266 37.1298 99.0885 37.1298C93.6439 37.1475 90.7259 34.3092 90.0141 30.2019Z" fill="black"/>
<path d="M22.4729 36.6187H16.708L26.2271 15.1123H32.0098L22.4729 36.6187Z" fill="black"/>
<path d="M50.6566 25.6364L57.8092 15.1123H51.2615L47.4183 21.4761L43.6462 15.1123H37.0274L44.2512 25.6364L39.5895 32.4761L31.903 15.1299H26.1382L35.6751 36.6187H42.899L47.4183 29.7966L51.8665 36.6187H57.7737L50.6566 25.6364Z" fill="black"/>
</svg>
