<svg width="115" height="30" viewBox="0 0 115 30" fill="none" xmlns="http://www.w3.org/2000/svg">
<mask id="mask0_1_83" style="mask-type:luminance" maskUnits="userSpaceOnUse" x="0" y="0" width="115" height="30">
<path d="M114.471 0.755371H0.0344238V29.4533H114.471V0.755371Z" fill="white"/>
</mask>
<g mask="url(#mask0_1_83)">
<path d="M26.5207 14.245H4.01886C3.4459 14.245 2.97711 13.7763 2.97711 13.2034V11.6148C2.97711 9.81795 4.43556 8.35962 6.23257 8.35962H24.2809C26.0779 8.35962 27.5364 9.81795 27.5364 11.6148V13.2034C27.5624 13.7763 27.0936 14.245 26.5207 14.245Z" fill="black"/>
<path d="M21.781 6.64079H8.75908C8.18612 6.64079 7.69128 6.17204 7.69128 5.57308C7.69128 2.91683 9.85292 0.755371 12.5094 0.755371H18.0307C20.6871 0.755371 22.8487 2.91683 22.8487 5.57308C22.8487 6.17204 22.38 6.64079 21.781 6.64079Z" fill="black"/>
<path d="M27.5627 15.9636H2.97737C1.36266 15.9636 0.0344238 17.2917 0.0344238 18.9063C0.0344238 20.5209 1.36266 21.849 2.97737 21.849H11.702C12.0145 20.1824 13.473 18.9063 15.244 18.9063C17.0149 18.9063 18.4994 20.1824 18.812 21.849H27.5366C29.1513 21.849 30.4796 20.5209 30.4796 18.9063C30.4796 17.2917 29.1774 15.9636 27.5627 15.9636Z" fill="black"/>
<path d="M26.4942 23.5679H18.864V29.4533H24.5932C26.2078 29.4533 27.5359 28.1252 27.5359 26.5106V24.6356C27.5619 24.0627 27.0932 23.5679 26.4942 23.5679Z" fill="black"/>
<path d="M4.01882 23.5679C3.4459 23.5679 2.95111 24.0366 2.95111 24.6356V26.5106C2.95111 28.1252 4.27924 29.4533 5.89381 29.4533H11.623V23.5679C11.649 23.5679 4.01882 23.5679 4.01882 23.5679Z" fill="black"/>
<path d="M53.7878 17.1616C53.7878 20.3647 51.5743 22.422 48.6836 22.422C47.3034 22.422 46.2097 21.9793 45.4805 21.0939V22.2658H42.642V8.17725H45.6107V13.1512C46.3659 12.3179 47.4076 11.9012 48.6836 11.9012C51.5482 11.9012 53.7878 13.9585 53.7878 17.1616ZM50.767 17.1616C50.767 15.3908 49.6472 14.3231 48.1628 14.3231C46.6784 14.3231 45.5586 15.3908 45.5586 17.1616C45.5586 18.9325 46.6784 20.0002 48.1628 20.0002C49.6472 20.0002 50.767 18.9325 50.767 17.1616Z" fill="black"/>
<path d="M63.4763 19.0626L65.0648 20.7813C64.1273 21.8751 62.6951 22.422 60.8461 22.422C57.3044 22.422 55.0128 20.2084 55.0128 17.1615C55.0128 14.1147 57.3305 11.9011 60.4815 11.9011C63.3721 11.9011 65.7419 13.8022 65.768 17.0834L58.1898 18.5417C58.6325 19.5574 59.57 20.0522 60.8982 20.0522C61.9919 20.0522 62.7732 19.7397 63.4763 19.0626ZM57.9034 16.849L62.8773 15.8855C62.5909 14.8438 61.7055 14.1407 60.4555 14.1407C58.9971 14.1407 57.9555 15.1303 57.9034 16.849Z" fill="black"/>
<path d="M75.4565 19.0626L77.045 20.7813C76.1075 21.8751 74.6752 22.422 72.8263 22.422C69.2846 22.422 66.9929 20.2084 66.9929 17.1615C66.9929 14.1147 69.3106 11.9011 72.4617 11.9011C75.3523 11.9011 77.7221 13.8022 77.7481 17.0834L70.196 18.5417C70.6387 19.5574 71.5762 20.0522 72.9044 20.0522C73.9721 20.0522 74.7533 19.7397 75.4565 19.0626ZM69.8835 16.849L74.8575 15.8855C74.571 14.8438 73.6856 14.1407 72.4356 14.1407C70.9773 14.1407 69.9617 15.1303 69.8835 16.849Z" fill="black"/>
<path d="M90.197 16.4325V22.2918H87.2283V16.8752C87.2283 15.2345 86.4731 14.4533 85.1449 14.4533C83.7126 14.4533 82.697 15.3387 82.697 17.2137V22.2658H79.7283V8.17725H82.697V13.1252C83.5043 12.3179 84.6501 11.9012 85.9522 11.9012C88.3741 11.9012 90.197 13.3075 90.197 16.4325Z" fill="black"/>
<path d="M92.5157 8.95842C92.5157 8.02092 93.2709 7.29175 94.3647 7.29175C95.4584 7.29175 96.2137 7.96883 96.2137 8.88029C96.2137 9.86987 95.4584 10.599 94.3647 10.599C93.2709 10.599 92.5157 9.89592 92.5157 8.95842ZM92.8803 12.0574H95.8491V22.2917H92.8803C92.8803 22.2657 92.8803 12.0574 92.8803 12.0574Z" fill="black"/>
<path d="M98.2454 8.95842C98.2454 8.02092 99.0006 7.29175 100.094 7.29175C101.188 7.29175 101.943 7.96883 101.943 8.88029C101.943 9.86987 101.188 10.599 100.094 10.599C99.0006 10.599 98.2454 9.89592 98.2454 8.95842ZM98.61 12.0574H101.579V22.2917H98.61C98.61 22.2657 98.61 12.0574 98.61 12.0574Z" fill="black"/>
<path d="M114.47 12.0574L110.147 22.2917H107.074L102.777 12.0574H105.85L108.688 19.0105L111.605 12.0574C111.631 12.0574 114.47 12.0574 114.47 12.0574Z" fill="black"/>
</g>
</svg>
