<svg width="123" height="27" viewBox="0 0 123 27" fill="none" xmlns="http://www.w3.org/2000/svg">
<mask id="mask0_1_12" style="mask-type:luminance" maskUnits="userSpaceOnUse" x="0" y="0" width="123" height="27">
<path d="M122.104 0.333252H0.041687V26.9885H122.104V0.333252Z" fill="white"/>
</mask>
<g mask="url(#mask0_1_12)">
<path d="M27.6504 12.2403V16.0071H27.0119C26.3734 13.3129 25.9265 12.9553 23.7109 12.9553H21.2718V18.7014C24.3365 18.6567 24.8026 18.1715 24.8857 16.4477H25.5816V21.6446H24.8793C24.8027 19.9527 24.3047 19.4612 21.2718 19.442V26.0372H21.674C26.3989 26.0372 26.9417 24.9391 27.2928 22.398H27.9952L27.6376 26.7522H17.2173V26.0372H19.0689V12.9298H17.2173V12.2403H27.6504ZM97.9555 7.14554H121.414V7.8669H97.9491L97.9555 7.14554ZM95.5356 0.333252L79.2155 7.18377H0.041687V7.88607H79.3624L95.8165 1.00363L95.5356 0.365179M9.05729 26.3372C7.78342 26.6734 6.46574 26.8133 5.14968 26.7522H0.041687V26.0372H1.89334V12.9298H0.041687V12.2403H5.14968C6.4608 12.1776 7.77389 12.3131 9.04452 12.6425C11.9177 13.498 13.3863 15.8348 13.3863 19.4995C13.3863 23.1642 11.9177 25.5009 9.04452 26.3564M8.53372 13.4597C7.45157 13.0622 6.30157 12.8821 5.14968 12.9298H4.10254V26.0372H5.14968C6.29942 26.0943 7.44919 25.9251 8.53372 25.5392C10.2257 24.7539 10.9409 22.9854 10.9409 19.493C10.9409 16.0008 10.2577 14.2514 8.54649 13.4597H8.53372ZM75.7996 26.765L78.0791 17.0095H79.5028V16.2945H75.5442V17.0095H77.3001L75.5123 24.5751L75.0908 22.8513L73.4627 17.2841H71.9814L69.8935 24.5943L69.5422 22.8386L68.1567 17.0095H69.7338V16.2945H64.8812V17.0095H66.2604L68.6037 26.7587H70.085L72.192 19.2696L72.6709 21.1849L74.3119 26.7522H75.7804M117.251 16.1221C120.539 16.1221 122.104 17.8012 122.104 21.5489C122.104 25.2966 120.539 26.9756 117.251 26.9756C113.962 26.9756 112.417 25.2327 112.417 21.517C112.417 17.8012 113.962 16.0901 117.251 16.0901M117.251 16.7924C116.063 16.7924 114.588 17.3543 114.588 21.517C114.588 25.6796 116.07 26.2415 117.251 26.2415C118.432 26.2415 119.933 25.6669 119.933 21.517C119.933 17.367 118.445 16.7605 117.251 16.7605V16.7924ZM110.744 12.668C109.434 12.2031 108.048 11.9866 106.659 12.0296C101.806 12.0296 99.3603 14.6345 99.3603 19.4995C99.3603 24.2495 101.786 26.9693 106.659 26.9693C108.053 26.986 109.438 26.7166 110.726 26.1776L111.044 22.4299H110.342C109.877 24.8369 108.599 26.2095 106.512 26.2095C105.997 26.2464 105.48 26.1808 104.992 26.0164C104.502 25.8519 104.051 25.5921 103.664 25.2519C102.565 24.1985 101.978 22.315 101.978 19.5059C101.978 16.6967 102.578 14.6728 103.785 13.6321C104.481 13.0501 105.369 12.7475 106.275 12.7829C108.51 12.7829 109.723 14.1748 110.106 15.9752H110.744V12.6553M41.4675 12.7192C40.303 12.2716 39.0626 12.0547 37.8153 12.0806C34.7697 12.0806 33.0265 13.5491 33.0265 15.8667C33.0265 17.9417 34.1502 18.9951 36.0785 19.7995L38.058 20.6295C38.058 20.6295 40.1011 22.2257 40.1011 23.5664C40.1011 25.2902 39.1306 26.2478 37.2917 26.2478C35.4529 26.2478 33.9715 24.8879 33.416 22.4172H32.7775L33.0968 26.2031C34.3026 26.735 35.6102 26.9966 36.9278 26.9693C40.0373 26.9693 42.1123 25.3731 42.1123 22.6278C42.1123 20.2975 40.8354 19.3718 38.9199 18.5801L37.0044 17.7885C35.6635 17.2458 35.0889 16.5626 35.0889 15.0942C35.0889 13.6258 36.1744 12.7958 37.5599 12.7958C39.3605 12.7958 40.3821 13.9002 40.7907 16.0263H41.4739V12.7064M53.0371 19.0398C53.0371 16.9329 51.6962 16.0391 50.1638 16.0391C49.4671 16.017 48.7774 16.1834 48.1671 16.5204C47.5569 16.8575 47.049 17.3529 46.6968 17.9544V12.2084H43.2681V12.9298H44.6919V26.0436H43.2681V26.7587H48.2037V26.0372H46.7159V20.2912C46.7003 19.6035 46.8701 18.9242 47.2076 18.3247C47.4299 17.932 47.7503 17.6037 48.1375 17.372C48.5248 17.1403 48.9656 17.0133 49.4168 17.0031C50.4576 17.0031 51.0322 17.731 51.0322 19.0462V26.0691H49.5445V26.7714H54.4609V26.0308H53.0371V19.0078M63.6361 23.5345V18.9376C63.6361 16.8308 62.1165 16.0774 59.7669 16.0774C57.4172 16.0774 55.8082 16.9073 55.8082 18.4077C55.8098 18.6901 55.9214 18.9608 56.1193 19.1622C56.3171 19.3637 56.5858 19.48 56.8681 19.4867H56.9958C57.1793 19.506 57.3648 19.4814 57.5369 19.4147C57.709 19.3481 57.8628 19.2415 57.9855 19.1037V18.6184C57.9855 17.4181 58.5729 16.7477 59.7414 16.7477C59.9894 16.7158 60.2414 16.7401 60.4786 16.8191C60.7159 16.8981 60.9323 17.0297 61.1116 17.2041C61.2907 17.3785 61.4284 17.591 61.5139 17.826C61.5995 18.0609 61.6309 18.3122 61.6058 18.561V20.1251L58.1451 21.2296C57.1873 21.5744 55.5911 22.1426 55.5911 24.0069C55.5911 26.0883 57.0341 26.9885 58.9241 26.9885C60.4564 26.9885 61.4781 26.4522 62.0016 25.2966C62.289 26.5735 63.5341 27.0842 64.9643 26.7969V26.1585C64.2491 25.935 63.6873 25.0603 63.6873 23.5409M61.676 23.5409C61.676 25.2391 60.9865 26.0308 59.6967 26.0308C58.5473 26.0308 57.9088 25.2646 57.9088 23.9877C57.9088 22.181 58.8474 21.8553 60.0797 21.434L61.676 20.8913V23.5409ZM93.2178 24.9135C93.8497 24.2456 94.3396 23.4566 94.6579 22.5941C94.9762 21.7316 95.1162 20.8135 95.0695 19.8953C95.0546 19.028 94.9126 18.1676 94.6481 17.3415H91.2193V17.9799C91.6131 17.9553 92.0078 18.0093 92.3804 18.1387C92.7532 18.2679 93.0964 18.4701 93.3902 18.7334C93.6554 19.0257 93.8584 19.3688 93.9868 19.742C94.1151 20.1151 94.1664 20.5104 94.1372 20.9041C94.1357 22.2112 93.6329 23.4678 92.7325 24.4155C92.5857 24.2623 92.3303 24.0133 92.1834 23.8537C90.0587 21.7221 88.2446 19.302 86.7946 16.6647C86.4811 16.0894 86.3063 15.4489 86.2838 14.7941C86.2628 14.5143 86.3024 14.2333 86.3999 13.9701C86.4974 13.7071 86.6504 13.468 86.8485 13.2693C87.0466 13.0706 87.2851 12.9169 87.548 12.8187C87.8108 12.7204 88.0918 12.6799 88.3717 12.7C89.7252 12.7 90.7787 13.498 91.2321 15.8922H91.8706V12.7C90.8497 12.2366 89.7346 12.018 88.6143 12.0616C86.188 12.0616 84.4831 13.2108 84.4831 15.5347C84.5077 16.3091 84.6925 17.0699 85.0259 17.7693C84.1858 18.0578 83.461 18.6091 82.9584 19.3416C82.456 20.074 82.2025 20.9486 82.2357 21.8362C82.2357 24.3517 84.1511 27.0523 87.9822 27.0523C89.3025 27.0893 90.6083 26.7695 91.762 26.1266C92.813 26.6635 93.9671 26.9683 95.1461 27.0203L95.3504 26.4586C94.5859 26.0476 93.8723 25.5484 93.2242 24.971M89.074 26.1521C88.4262 26.1646 87.7822 26.0487 87.1794 25.8109C86.5766 25.573 86.027 25.2182 85.5623 24.7667C84.6263 23.7893 84.1165 22.4804 84.1448 21.1275C84.1016 20.5856 84.1764 20.0409 84.3637 19.5306C84.5512 19.0203 84.8467 18.5567 85.2302 18.1715C86.5788 20.6957 88.313 22.9941 90.3702 24.9838C90.6186 25.2347 90.8831 25.4693 91.1619 25.6861C90.5153 25.9971 89.8041 26.1502 89.0867 26.1329L89.074 26.1521Z" fill="black"/>
</g>
</svg>
