<svg width="108" height="28" viewBox="0 0 108 28" fill="none" xmlns="http://www.w3.org/2000/svg">
<mask id="mask0_1_40" style="mask-type:luminance" maskUnits="userSpaceOnUse" x="0" y="0" width="108" height="28">
<path d="M107.096 0.458252H0.395782V27.5416H107.096V0.458252Z" fill="white"/>
</mask>
<g mask="url(#mask0_1_40)">
<path d="M0.395782 4.52075H4.64797V19.61H12.3793V23.4791H0.395782V4.52075Z" fill="black"/>
<path d="M14.1199 10.5176H18.1789V23.479H14.1199V10.5176ZM16.246 4.13379C17.5991 4.13379 18.5654 5.10098 18.5654 6.45514C18.5654 7.80931 17.4057 8.7766 16.246 8.7766C15.0864 8.7766 13.9267 7.80931 13.9267 6.45514C13.9267 5.10098 14.893 4.13379 16.246 4.13379Z" fill="black"/>
<path d="M34.9962 4.52075H38.8621V15.9345L43.5012 10.5178H48.3337L43.1146 16.5148L48.3337 23.4791H43.308L39.0553 17.0952H38.8621V23.4791H34.9962V4.52075Z" fill="black"/>
<path d="M20.3055 10.5177H24.1714V12.2588C24.9446 10.9046 26.491 10.1309 28.0374 10.1309C32.0966 10.1309 32.8698 12.8392 32.8698 16.3213V23.4791H28.8106V17.2886C28.8106 15.741 28.8106 13.8064 26.6843 13.8064C24.558 13.8064 24.3647 15.3541 24.3647 17.0951V23.4791H20.3055V10.5177Z" fill="black"/>
<path d="M56.8387 15.5475C56.8387 14.1934 55.8723 13.0326 54.5192 13.0326H54.3259C52.7796 13.0326 51.6198 13.9999 51.4264 15.5475H56.8387ZM60.3182 21.3511C58.9651 22.8987 57.0321 23.866 54.9058 23.866C50.8466 23.866 47.7537 21.1576 47.7537 17.0951C47.7537 13.0326 50.6532 10.1309 54.7125 10.1309C58.3852 10.1309 60.898 12.8392 60.898 16.9017V18.2559H51.6198C51.813 19.8035 53.1662 20.7708 54.7125 20.7708C55.8723 20.7708 57.0321 20.1903 57.6119 19.223L60.3182 21.3511Z" fill="black"/>
<path d="M69.2098 13.8065C67.2769 13.8065 65.9238 15.1606 65.9238 17.0952C65.9238 19.0297 67.0836 20.3839 69.2098 20.3839C71.3361 20.3839 72.4959 19.0297 72.4959 17.0952C72.4959 15.1606 71.1428 13.8065 69.2098 13.8065ZM76.1686 23.4791H72.4959V21.738C71.5294 23.0922 70.1764 23.6725 68.4366 23.8661C64.5707 23.8661 62.0578 21.1577 62.0578 17.0952C62.0578 13.4196 64.1841 10.1309 67.8568 10.1309C69.5964 10.1309 71.1428 10.5178 71.916 11.872V4.52075H75.9753L76.1686 23.4791Z" fill="black"/>
<path d="M105.164 0.458252H82.1607C81.001 0.458252 80.2278 1.23211 80.2278 2.39273V25.6071C80.2278 26.7677 81.1943 27.5416 82.1607 27.5416H105.164C106.323 27.5416 107.096 26.7677 107.096 25.6071V2.39273C107.096 1.23211 106.323 0.458252 105.164 0.458252ZM88.153 23.4791H84.0938V10.5177H88.153V23.4791ZM86.22 8.77669C84.867 8.77669 83.9005 7.8094 83.9005 6.45523C83.9005 5.10106 84.867 4.13388 86.22 4.13388C87.5732 4.13388 88.5396 5.10106 88.5396 6.45523C88.5396 7.8094 87.3798 8.77669 86.22 8.77669ZM103.23 23.4791H99.1714V17.2886C99.1714 15.741 99.1714 13.8065 97.0452 13.8065C94.9184 13.8065 94.7252 15.3541 94.7252 17.0951V23.4791H90.6659V10.5177H94.5318V12.2589C95.3055 10.9047 96.8514 10.1309 98.3974 10.1309C102.457 10.1309 103.23 12.8392 103.23 16.3214V23.4791Z" fill="black"/>
</g>
</svg>
