<svg width="126" height="25" viewBox="0 0 126 25" fill="none" xmlns="http://www.w3.org/2000/svg">
<mask id="mask0_1_18" style="mask-type:luminance" maskUnits="userSpaceOnUse" x="0" y="0" width="126" height="25">
<path d="M125.02 0.541748H0.0100098V24.4271H125.02V0.541748Z" fill="white"/>
</mask>
<g mask="url(#mask0_1_18)">
<path d="M8.68203 14.2405C8.38864 14.8274 7.55121 14.8274 7.2578 14.2405L6.55607 12.8372C6.444 12.613 6.444 12.3492 6.55607 12.125L7.2578 10.7216C7.55121 10.1348 8.38864 10.1348 8.68203 10.7216L9.38378 12.125C9.4958 12.3492 9.4958 12.613 9.38378 12.8372L8.68203 14.2405Z" fill="black"/>
<path d="M8.68203 22.1998C8.38864 22.7867 7.55121 22.7867 7.2578 22.1998L6.55607 20.7964C6.444 20.5723 6.444 20.3085 6.55607 20.0843L7.2578 18.6809C7.55121 18.094 8.38864 18.094 8.68203 18.6809L9.38378 20.0843C9.4958 20.3085 9.4958 20.5723 9.38378 20.7964L8.68203 22.1998Z" fill="black"/>
<path d="M0.0100098 19.1789C0.0100098 18.4697 0.867674 18.1145 1.36929 18.616L5.01876 22.2652C5.52037 22.7668 5.16511 23.6244 4.45574 23.6244H0.806251C0.3665 23.6244 0.0100098 23.2679 0.0100098 22.8282V19.1789ZM0.0100098 15.3352C0.0100098 15.5463 0.0938994 15.7489 0.243223 15.8982L7.73683 23.3911C7.88615 23.5404 8.08868 23.6244 8.29984 23.6244H12.4158C13.1251 23.6244 13.4805 22.7668 12.9788 22.2652L1.36929 10.6567C0.867674 10.155 0.0100098 10.5103 0.0100098 11.2196V15.3352ZM0.0100098 7.37582C0.0100098 7.58697 0.0938994 7.78946 0.243223 7.93874L15.6969 23.3911C15.8462 23.5404 16.0487 23.6244 16.2599 23.6244H20.3758C21.0851 23.6244 21.4405 22.7668 20.9389 22.2652L1.36929 2.69728C0.867682 2.19571 0.0100098 2.55092 0.0100098 3.26019V7.37582ZM7.97004 7.37582C7.97004 7.58697 8.05397 7.78946 8.20326 7.93874L22.5309 22.2652C23.0325 22.7668 23.8902 22.4115 23.8902 21.7023V17.5867C23.8902 17.3755 23.8062 17.1729 23.6569 17.0236L9.32931 2.69717C8.82767 2.19561 7.97004 2.55092 7.97004 3.26019V7.37582ZM17.2893 2.69728C16.7877 2.19561 15.93 2.55092 15.93 3.26019V7.37582C15.93 7.58697 16.014 7.78946 16.1633 7.93874L22.5309 14.3058C23.0325 14.8074 23.8902 14.4522 23.8902 13.7428V9.62728C23.8902 9.41613 23.8062 9.21353 23.6569 9.06426L17.2893 2.69728Z" fill="black"/>
<path d="M33.87 19.2766L26.3752 11.7824C25.8736 11.2808 25.016 11.6361 25.016 12.3454V22.8282C25.016 23.2679 25.3724 23.6244 25.8122 23.6244H37.422C37.8617 23.6244 38.2182 23.2679 38.2182 22.8282V21.8736C38.2182 21.4338 37.8601 21.0827 37.424 21.026C36.0858 20.8516 34.834 20.2405 33.87 19.2766ZM28.8368 21.0774C28.1337 21.0774 27.5631 20.5069 27.5631 19.8039C27.5631 19.1009 28.1337 18.5304 28.8368 18.5304C29.5399 18.5304 30.1104 19.1009 30.1104 19.8039C30.1104 20.5069 29.5399 21.0774 28.8368 21.0774Z" fill="black"/>
<path d="M0.0100098 22.8281C0.0100098 23.2679 0.366471 23.6243 0.806188 23.6243H4.45538C5.1647 23.6243 5.51993 22.7667 5.01837 22.2651L1.36918 18.6159C0.867606 18.1143 0.0100098 18.4696 0.0100098 19.1789V22.8281Z" fill="black"/>
<path d="M7.96941 9.29745L1.36918 2.69725C0.867606 2.19558 0.0100098 2.55089 0.0100098 3.26016V7.37579C0.0100098 7.58693 0.0938927 7.78943 0.243205 7.9387L7.96941 15.665V9.29745Z" fill="black"/>
<path d="M1.36918 10.6567C0.867606 10.1551 0.0100098 10.5104 0.0100098 11.2196V15.3353C0.0100098 15.5464 0.0938927 15.7489 0.243205 15.8983L7.96941 23.6244V17.2569L1.36918 10.6567Z" fill="black"/>
<path d="M15.9294 9.62725C15.9294 9.4161 15.8455 9.21349 15.6963 9.06422L9.32918 2.69725C8.82767 2.19558 7.97003 2.55089 7.97003 3.26016V7.37579C7.97003 7.58693 8.05394 7.78943 8.20323 7.9387L15.9294 15.665V9.62725Z" fill="black"/>
<path d="M7.97003 23.6243H12.4154C13.1247 23.6243 13.48 22.7667 12.9783 22.2652L7.97003 17.2568V23.6243Z" fill="black"/>
<path d="M7.97003 9.29761V15.3353C7.97003 15.5465 8.05394 15.749 8.20323 15.8983L15.9294 23.6245V17.5868C15.9294 17.3756 15.8455 17.1731 15.6963 17.0239L7.97003 9.29761Z" fill="black"/>
<path d="M47.5056 20.4462H50.7762V15.0227H53.5087C56.5103 15.0227 58.4355 13.2425 58.4355 10.4892C58.4355 7.73612 56.5103 5.95581 53.5087 5.95581H47.5056V20.4462ZM50.7762 12.2281V8.7505H53.1775C54.4195 8.7505 55.1648 9.41279 55.1648 10.4892C55.1648 11.5657 54.4195 12.2281 53.1775 12.2281H50.7762Z" fill="black"/>
<path d="M64.3535 20.612C67.5414 20.612 69.8598 18.3349 69.8598 15.2298C69.8598 12.1247 67.5414 9.84766 64.3535 9.84766C61.1242 9.84766 58.8471 12.1247 58.8471 15.2298C58.8471 18.3349 61.1242 20.612 64.3535 20.612ZM61.8694 15.2298C61.8694 13.5738 62.863 12.4353 64.3535 12.4353C65.8233 12.4353 66.8169 13.5738 66.8169 15.2298C66.8169 16.8859 65.8233 18.0244 64.3535 18.0244C62.863 18.0244 61.8694 16.8859 61.8694 15.2298Z" fill="black"/>
<path d="M75.0948 20.612C77.5375 20.612 79.1936 19.0802 79.1936 17.2792C79.1936 13.0562 73.5837 14.4224 73.5837 12.7664C73.5837 12.3111 74.0598 12.0213 74.7429 12.0213C75.4468 12.0213 76.2955 12.4559 76.5646 13.4082L79.0073 12.3938C78.5312 10.8827 76.7716 9.84766 74.6394 9.84766C72.3417 9.84766 70.9133 11.2139 70.9133 12.8492C70.9133 16.8031 76.4404 15.7059 76.4404 17.3413C76.4404 17.9209 75.9022 18.3143 75.0948 18.3143C73.9356 18.3143 73.1282 17.5069 72.8799 16.534L70.4372 17.4862C70.9754 19.0594 72.5487 20.612 75.0948 20.612Z" fill="black"/>
<path d="M87.0625 20.3428L86.8556 17.7139C86.5037 17.9002 86.0483 17.9622 85.6757 17.9622C84.9304 17.9622 84.4336 17.4241 84.4336 16.4925V12.5387H86.9591V10.0132H84.4336V6.99097H81.3906V10.0132H79.7345V12.5387H81.3906V16.8858C81.3906 19.4114 83.1088 20.6119 85.3651 20.6119C85.9861 20.6119 86.5658 20.5085 87.0625 20.3428Z" fill="black"/>
<path d="M97.6732 5.95581V11.5863H91.9184V5.95581H88.6477V20.4462H91.9184V14.3809H97.6732V20.4462H100.965V5.95581H97.6732Z" fill="black"/>
<path d="M108.226 20.612C111.413 20.612 113.732 18.3349 113.732 15.2298C113.732 12.1247 111.413 9.84766 108.226 9.84766C104.996 9.84766 102.719 12.1247 102.719 15.2298C102.719 18.3349 104.996 20.612 108.226 20.612ZM105.741 15.2298C105.741 13.5738 106.735 12.4353 108.226 12.4353C109.695 12.4353 110.689 13.5738 110.689 15.2298C110.689 16.8859 109.695 18.0244 108.226 18.0244C106.735 18.0244 105.741 16.8859 105.741 15.2298Z" fill="black"/>
<path d="M119.606 20.1152C120.744 20.1152 121.759 19.7218 122.297 19.0387V20.0323C122.297 21.1916 121.365 21.999 119.937 21.999C118.923 21.999 118.033 21.5021 117.888 20.6534L115.114 21.0881C115.487 23.0546 117.494 24.3795 119.937 24.3795C123.146 24.3795 125.278 22.4958 125.278 19.7012V10.0133H122.276V10.9034C121.717 10.2616 120.765 9.84766 119.544 9.84766C116.646 9.84766 114.824 11.8349 114.824 14.9814C114.824 18.1279 116.646 20.1152 119.606 20.1152ZM117.785 14.9814C117.785 13.4289 118.695 12.4353 120.103 12.4353C121.531 12.4353 122.442 13.4289 122.442 14.9814C122.442 16.5339 121.531 17.5276 120.103 17.5276C118.695 17.5276 117.785 16.5339 117.785 14.9814Z" fill="black"/>
</g>
</svg>
