<svg width="126" height="16" viewBox="0 0 126 16" fill="none" xmlns="http://www.w3.org/2000/svg">
<mask id="mask0_1_52" style="mask-type:luminance" maskUnits="userSpaceOnUse" x="0" y="0" width="126" height="16">
<path d="M125.04 0.708252H0.0300293V15.9256H125.04V0.708252Z" fill="white"/>
</mask>
<g mask="url(#mask0_1_52)">
<path d="M6.79361 8.63428L13.5572 15.2919H0.0300293L6.79361 8.63428Z" fill="black" fill-opacity="0.5"/>
<path d="M0.0300293 1.97681L6.79361 8.63441L13.5572 1.97681H0.0300293Z" fill="black" fill-opacity="0.5"/>
<path d="M6.79469 8.63441L13.5583 15.292L20.3219 8.63441L13.5583 1.97681L6.79469 8.63441Z" fill="black"/>
<path d="M122.434 5.13221C122.434 5.22888 122.299 5.27127 122.237 5.19742C121.742 4.62242 120.924 4.18648 119.806 4.18648C117.385 4.18648 116.009 6.14086 116.009 8.50721C116.009 10.8583 117.385 12.8115 119.806 12.8115C120.94 12.8115 121.825 12.4148 122.375 11.73C122.438 11.6539 122.575 11.6952 122.575 11.793V12.5246C122.575 12.5789 122.619 12.6224 122.672 12.6224H124.218C124.272 12.6224 124.316 12.5789 124.316 12.5246V0.806065C124.316 0.780128 124.306 0.755231 124.288 0.736898C124.269 0.718565 124.244 0.708252 124.218 0.708252H122.53C122.504 0.708564 122.479 0.718982 122.462 0.737315C122.443 0.755649 122.434 0.780336 122.434 0.806065V5.13221ZM122.512 8.50721C122.512 9.98544 121.642 11.1441 120.201 11.1441C118.778 11.1441 117.892 9.98429 117.892 8.50721C117.892 6.99846 118.778 5.85502 120.201 5.85502C121.642 5.85502 122.512 6.99846 122.512 8.50721ZM115.539 4.40388C115.539 4.3795 115.53 4.35596 115.513 4.33804C115.498 4.32013 115.475 4.30909 115.45 4.30721C115.39 4.30252 115.33 4.29961 115.269 4.29846C114.107 4.29846 113.43 4.76481 113.057 5.22127C112.993 5.29742 112.848 5.25606 112.848 5.15606V4.47461C112.848 4.44877 112.839 4.42409 112.82 4.40575C112.803 4.38742 112.778 4.377 112.753 4.37669H111.206C111.18 4.377 111.155 4.38742 111.137 4.40575C111.119 4.42409 111.109 4.44877 111.109 4.47461V12.5246C111.109 12.5789 111.152 12.6224 111.206 12.6224H112.894C112.92 12.6221 112.945 12.6117 112.963 12.5934C112.981 12.575 112.991 12.5503 112.991 12.5246V8.33325C112.991 6.74408 113.783 6.04523 115.112 6.04523C115.225 6.04523 115.344 6.05606 115.428 6.06367C115.441 6.06523 115.455 6.06377 115.468 6.05961C115.482 6.05544 115.494 6.04846 115.505 6.03929C115.515 6.03013 115.524 6.01888 115.53 6.00617C115.536 5.99356 115.539 5.97981 115.539 5.96586V4.40388ZM107.566 8.76263C107.579 8.76054 107.594 8.76158 107.607 8.76544C107.621 8.7694 107.633 8.77617 107.644 8.78533C107.654 8.79461 107.663 8.80596 107.669 8.81867C107.675 8.83148 107.678 8.84534 107.678 8.85929V9.27023C107.678 10.3822 106.934 11.3354 105.415 11.3354C104.512 11.3354 103.958 11.0333 103.958 10.255C103.958 9.68325 104.338 9.25502 105.494 9.07888L107.566 8.76263ZM105.035 12.8126C106.206 12.8126 107.087 12.4713 107.657 11.8017C107.719 11.7278 107.855 11.7691 107.859 11.8669C107.882 12.3398 107.949 12.6213 107.963 12.6213H109.603C109.672 12.6213 109.721 12.5496 109.699 12.4833C109.586 12.1224 109.513 11.5376 109.513 11.0648V7.26804C109.513 5.37783 108.373 4.18648 105.969 4.18648C103.546 4.18648 102.553 5.45607 102.358 6.85929C102.356 6.87284 102.358 6.88648 102.362 6.8994C102.366 6.91242 102.373 6.92429 102.382 6.9345C102.391 6.94461 102.402 6.95273 102.414 6.95835C102.426 6.96398 102.44 6.9669 102.453 6.9669H104.098C104.146 6.9669 104.185 6.93221 104.196 6.88544C104.349 6.17127 104.93 5.74409 105.921 5.74409C107.044 5.74409 107.678 6.25169 107.678 7.25284V7.29523C107.678 7.31867 107.669 7.34138 107.654 7.35919C107.639 7.3769 107.618 7.38856 107.594 7.3919L105.304 7.71367C103.136 8.01481 102.156 8.92023 102.156 10.318C102.156 11.7311 102.994 12.8126 105.035 12.8126ZM97.1714 12.8126C99.7978 12.8126 101.444 10.8267 101.444 8.50825C101.444 6.18867 99.7978 4.18648 97.1714 4.18648C94.5604 4.18648 92.9157 6.18867 92.9157 8.50721C92.9157 10.8267 94.5604 12.8126 97.1714 12.8126ZM94.7984 8.50825C94.7984 6.90284 95.8105 5.85502 97.1714 5.85502C98.5487 5.85502 99.5608 6.90283 99.5608 8.50721C99.5608 10.0963 98.5487 11.1441 97.1714 11.1441C95.8105 11.1441 94.7984 10.0974 94.7984 8.50825ZM85.9815 5.19742C85.9185 5.27127 85.7858 5.22888 85.7858 5.13221V0.806065C85.7858 0.780128 85.7755 0.755231 85.7571 0.736898C85.7388 0.718565 85.714 0.708252 85.6879 0.708252H83.9998C83.9738 0.708252 83.9489 0.718565 83.9306 0.736898C83.9123 0.755231 83.9019 0.780128 83.9019 0.806065V12.5235C83.9019 12.5778 83.9454 12.6213 83.9998 12.6213H85.5455C85.5999 12.6213 85.6434 12.5778 85.6434 12.5235V11.7843C85.6434 11.6865 85.7782 11.6452 85.8391 11.7213C86.4011 12.4115 87.288 12.8126 88.4121 12.8126C90.8481 12.8126 92.2254 10.8583 92.2254 8.50825C92.2254 6.14086 90.8481 4.18648 88.4121 4.18648C87.3066 4.18648 86.4793 4.62242 85.9815 5.19742ZM85.7217 8.50721C85.7217 6.99846 86.5913 5.85502 88.0317 5.85502C89.4556 5.85502 90.3427 6.99846 90.3427 8.50721C90.3427 9.98544 89.4556 11.1441 88.0317 11.1441C86.5924 11.1441 85.7217 9.98429 85.7217 8.50721ZM82.3029 11.068C82.3024 11.0527 82.2986 11.0377 82.2917 11.0241C82.2848 11.0104 82.275 10.9985 82.2631 10.9891C82.251 10.9796 82.237 10.9729 82.2221 10.9695C82.2072 10.9661 82.1918 10.966 82.1768 10.9691C82.0682 10.9909 81.9007 11.018 81.7181 11.018C81.0691 11.018 80.8007 10.6996 80.8007 10.0485V5.98325C80.8009 5.95752 80.8114 5.93294 80.8296 5.91481C80.848 5.89669 80.8726 5.88648 80.8985 5.88648H82.2376C82.292 5.88648 82.3356 5.84304 82.3356 5.78867V4.47669C82.3356 4.45075 82.3253 4.42586 82.3068 4.40752C82.2885 4.38919 82.2636 4.37888 82.2376 4.37888H80.8973C80.8845 4.37888 80.8718 4.37638 80.8599 4.37148C80.8481 4.36659 80.8372 4.35929 80.8282 4.35023C80.8191 4.34117 80.8119 4.33034 80.807 4.31856C80.8021 4.30669 80.7995 4.29388 80.7995 4.28106V2.33221C80.7995 2.30638 80.7894 2.28169 80.7713 2.26336C80.7532 2.24502 80.7286 2.23461 80.7027 2.23429H79.0146C78.9886 2.23429 78.9637 2.24461 78.9454 2.26304C78.9271 2.28138 78.9168 2.30617 78.9168 2.33221V4.28221C78.9168 4.29502 78.9143 4.30773 78.9094 4.31961C78.9044 4.33148 78.8972 4.34221 78.8881 4.35138C78.879 4.36044 78.8682 4.36763 78.8563 4.37252C78.8445 4.37742 78.8318 4.38002 78.8189 4.38002H77.7645C77.7388 4.38002 77.7141 4.39013 77.6957 4.40825C77.6774 4.42638 77.667 4.45096 77.6667 4.47669V5.79085C77.6667 5.84523 77.7102 5.88867 77.7645 5.88867H78.8189C78.8733 5.88867 78.9168 5.93221 78.9168 5.98544V10.2409C78.9168 11.7974 79.645 12.6713 81.3224 12.6713C81.7876 12.6713 82.0986 12.6191 82.2312 12.5919C82.2518 12.5874 82.2704 12.5759 82.2834 12.5592C82.2965 12.5425 82.3034 12.5218 82.3029 12.5006V11.068ZM69.0214 8.50721C69.0214 10.8898 70.6987 12.8115 73.1195 12.8115C75.4959 12.8115 76.7286 11.1963 76.9938 9.74627C76.9962 9.73263 76.9956 9.71856 76.9919 9.70513C76.9882 9.69169 76.9816 9.67919 76.9725 9.66856C76.9636 9.65804 76.9523 9.64961 76.9396 9.64377C76.9269 9.63804 76.9132 9.63523 76.8992 9.63544H75.1578C75.1359 9.63565 75.1148 9.64294 75.0975 9.65627C75.0802 9.66961 75.0678 9.68825 75.0621 9.70929C74.8186 10.5583 74.0881 11.1441 73.1033 11.1441C71.7586 11.1441 70.9041 10.0485 70.9041 8.50721C70.9041 6.95065 71.7586 5.85502 73.1033 5.85502C74.0881 5.85502 74.8186 6.44086 75.0621 7.28981C75.0741 7.33325 75.1132 7.36367 75.1578 7.36367H76.8992C76.9132 7.36388 76.9269 7.36106 76.9396 7.35534C76.9523 7.34961 76.9636 7.34106 76.9725 7.33054C76.9816 7.31992 76.9882 7.30742 76.9919 7.29398C76.9956 7.28065 76.9962 7.26648 76.9938 7.25284C76.7286 5.80284 75.4959 4.18763 73.1195 4.18763C70.6987 4.18763 69.0214 6.10929 69.0214 8.50721ZM65.8505 9.12669C65.8505 10.4767 65.1233 11.1919 63.9525 11.1919C62.8133 11.1919 62.3546 10.4452 62.3546 9.31804V4.47461C62.3546 4.44856 62.3443 4.42377 62.326 4.40534C62.3076 4.387 62.2827 4.37669 62.2568 4.37669H60.5685C60.5426 4.37669 60.5178 4.387 60.4993 4.40534C60.481 4.42377 60.4707 4.44856 60.4707 4.47461V9.57242C60.4707 11.4941 61.5002 12.8115 63.4927 12.8115C64.5994 12.8115 65.3548 12.3952 65.7777 11.8789C65.8419 11.8006 65.9939 11.8452 65.9939 11.9463V12.5246C65.9939 12.5789 66.0375 12.6224 66.0919 12.6224H67.6365C67.6909 12.6224 67.7344 12.5789 67.7344 12.5246V4.47461C67.7344 4.44856 67.7241 4.42377 67.7057 4.40534C67.6873 4.387 67.6624 4.37669 67.6365 4.37669H65.9483C65.9224 4.37669 65.8975 4.387 65.8792 4.40534C65.8608 4.42377 65.8505 4.44856 65.8505 4.47461V9.12669ZM57.1432 5.13221C57.1432 5.22888 57.0096 5.27127 56.9466 5.19742C56.4519 4.62242 55.6345 4.18648 54.5159 4.18648C52.095 4.18648 50.7177 6.14086 50.7177 8.50721C50.7177 10.8583 52.095 12.8115 54.5159 12.8115C55.6486 12.8115 56.5345 12.4148 57.0856 11.73C57.1476 11.6539 57.2846 11.6952 57.2846 11.793V12.5246C57.2846 12.5789 57.3281 12.6224 57.3824 12.6224H58.9282C58.9826 12.6224 59.026 12.5789 59.026 12.5246V0.806065C59.026 0.780128 59.0158 0.755231 58.9973 0.736898C58.979 0.718565 58.9541 0.708252 58.9282 0.708252H57.24C57.2141 0.708252 57.1892 0.718565 57.1708 0.736898C57.1525 0.755231 57.1422 0.780128 57.1422 0.806065L57.1432 5.13221ZM57.2216 8.50721C57.2216 9.98544 56.3519 11.1441 54.9116 11.1441C53.4875 11.1441 52.6006 9.98429 52.6006 8.50721C52.6006 6.99846 53.4875 5.85502 54.9116 5.85502C56.3508 5.85502 57.2216 6.99846 57.2216 8.50721ZM45.6859 12.8126C48.3133 12.8126 49.958 10.8267 49.958 8.50825C49.958 6.18763 48.3143 4.18648 45.6859 4.18648C43.0759 4.18648 41.4301 6.18867 41.4301 8.50721C41.4301 10.8267 43.0759 12.8126 45.6859 12.8126ZM43.3129 8.50825C43.3129 6.90284 44.3249 5.85502 45.6859 5.85502C47.0632 5.85502 48.0752 6.90283 48.0752 8.50721C48.0752 10.0963 47.0632 11.1441 45.6859 11.1441C44.3249 11.1441 43.3129 10.0974 43.3129 8.50825ZM41.2137 4.40388C41.2138 4.3795 41.2047 4.35596 41.1881 4.33804C41.1717 4.32013 41.1489 4.30909 41.1247 4.30721C41.065 4.30252 41.0051 4.29961 40.9453 4.29846C39.7822 4.29846 39.1038 4.76481 38.7309 5.22127C38.6679 5.29742 38.5244 5.25606 38.5244 5.15606V4.47461C38.5244 4.44856 38.5141 4.42377 38.4957 4.40534C38.4774 4.387 38.4525 4.37669 38.4265 4.37669H36.8808C36.8549 4.37669 36.83 4.387 36.8116 4.40534C36.7933 4.42377 36.783 4.44856 36.783 4.47461V12.5246C36.783 12.5789 36.8264 12.6224 36.8808 12.6224H38.5689C38.6233 12.6224 38.6668 12.5789 38.6668 12.5246V8.33325C38.6668 6.74408 39.4571 6.04523 40.7865 6.04523C40.9007 6.04523 41.0191 6.05606 41.1018 6.06367C41.1157 6.06523 41.1298 6.06377 41.143 6.05961C41.1563 6.05544 41.1687 6.04846 41.1793 6.03929C41.1898 6.03013 41.1982 6.01888 41.2042 6.00617C41.2101 5.99356 41.2134 5.97981 41.2137 5.96586V4.40388ZM29.1802 11.8735C29.1802 11.7756 29.315 11.7333 29.3791 11.8083C29.8759 12.3898 30.7031 12.8126 31.8076 12.8126C34.2436 12.8126 35.6209 10.8583 35.6209 8.50825C35.6209 6.14086 34.2436 4.18648 31.8076 4.18648C30.6825 4.18648 29.7954 4.60065 29.2334 5.28429C29.1726 5.35929 29.0378 5.3169 29.0378 5.21909V4.47461C29.0378 4.44856 29.0275 4.42377 29.0091 4.40534C28.9908 4.387 28.9659 4.37669 28.9399 4.37669H27.3952C27.3693 4.37669 27.3444 4.387 27.3261 4.40534C27.3077 4.42377 27.2974 4.44856 27.2974 4.47461V15.8278C27.2974 15.8822 27.3409 15.9256 27.3952 15.9256H29.0834C29.1378 15.9256 29.1813 15.8822 29.1813 15.8278L29.1802 11.8735ZM29.1171 8.50721C29.1171 6.98221 29.9868 5.82242 31.4271 5.82242C32.8511 5.82242 33.7381 6.98221 33.7381 8.50721C33.7381 9.98544 32.8511 11.1441 31.4271 11.1441C29.9878 11.1441 29.1171 9.98429 29.1171 8.50721Z" fill="black"/>
</g>
</svg>
