<svg width="120" height="26" viewBox="0 0 120 26" fill="none" xmlns="http://www.w3.org/2000/svg">
<path d="M13.0505 3.08789C14.7476 3.08789 16.4446 3.54227 17.9947 4.46414L19.0905 4.98529L22.017 4.43748L21.5493 7.4305C24.0481 11.3322 23.7809 17.0778 20.4134 20.5519C18.409 22.6363 15.7231 23.6785 13.0505 23.6785C10.3778 23.6785 7.93244 22.7299 5.94137 20.8057C1.87905 16.8774 1.75878 10.3969 5.68748 6.33487C7.74534 4.21029 10.3778 3.10133 13.0371 3.10133M13.0505 0.869873C9.7231 0.869873 6.5427 2.25946 4.11065 4.77154C-0.659906 9.70206 -0.526281 17.5988 4.418 22.369C6.75651 24.6272 9.81665 25.8699 13.0638 25.8699C16.4713 25.8699 19.6517 24.5203 22.017 22.0751C25.7853 18.1868 26.5068 11.8399 23.861 6.97623L24.2084 4.77154L24.6895 1.67154L21.6027 2.25946L19.3845 2.67373L19.0236 2.49998C17.193 1.43102 15.1217 0.869873 13.0371 0.869873" fill="black"/>
<path d="M12.9434 21.741C10.3644 21.741 7.91897 20.4849 6.4223 18.3738L8.22629 17.0911C9.32211 18.6143 11.086 19.5363 12.9434 19.5363C14.8009 19.5363 16.5781 18.6276 17.6605 17.0911L19.4645 18.3738C17.9679 20.4849 15.5224 21.741 12.9434 21.741Z" fill="black"/>
<path d="M40.3099 9.24759C39.7488 8.52603 38.653 7.97822 37.6109 7.97822C36.4083 7.97822 35.0052 8.5528 35.0052 9.99593C35.0052 11.3454 36.1544 11.7462 37.8113 12.2674C39.7087 12.8553 42.1138 13.6837 42.1138 16.5699C42.1138 19.7233 39.6418 21.2733 36.7423 21.2733C34.8316 21.2733 32.854 20.5518 31.6916 19.1755L33.5622 17.4251C34.2971 18.4272 35.6199 19.0419 36.7824 19.0419C38.0117 19.0419 39.4414 18.4406 39.4414 16.8505C39.4414 15.2604 37.9048 14.8729 36.0475 14.2984C34.257 13.7372 32.3195 12.8686 32.3195 10.1161C32.3195 7.12312 35.0453 5.78687 37.7044 5.78687C39.1742 5.78687 40.8712 6.30801 41.9936 7.36364L40.2833 9.23426L40.3099 9.24759Z" fill="black"/>
<path d="M43.05 12.9088V10.9179H44.8004V8.03174H47.2589V10.9179H49.7577V12.9088H47.2589V17.5454C47.2589 18.4406 47.4728 19.0819 48.5684 19.0819C48.9025 19.0819 49.3434 19.0152 49.6241 18.8682L49.7042 20.819C49.2632 20.9793 48.6085 21.0862 48.0474 21.0862C45.4017 21.0862 44.8004 19.4694 44.8004 17.5454V12.8821H43.05V12.9088Z" fill="black"/>
<path d="M57.762 19.6299H57.6952C57.2008 20.4984 56.0117 21.1532 54.5953 21.1532C52.9919 21.1532 50.8539 20.3915 50.8539 18.0532C50.8539 15.0868 54.5953 14.6593 57.722 14.6593V14.4054C57.722 13.1761 56.6797 12.5749 55.4371 12.5749C54.3814 12.5749 53.3526 13.0692 52.7112 13.7239L51.4151 12.2007C52.5375 11.1585 54.1143 10.624 55.6375 10.624C59.2184 10.624 60.087 12.8287 60.087 14.8196V20.8859H57.762V19.6165V19.6299ZM57.722 16.3429H57.1607C55.584 16.3429 53.3526 16.53 53.3526 17.9998C53.3526 18.9618 54.2478 19.2424 55.103 19.2424C56.8133 19.2424 57.722 18.2669 57.722 16.6903V16.3295V16.3429Z" fill="black"/>
<path d="M63.4016 12.909H61.5042V10.918H63.4016V9.44824C63.4016 7.05647 64.3369 4.93188 67.4369 4.93188C67.9714 4.93188 68.3321 4.97199 68.7063 5.07886L68.5458 7.20345C68.2787 7.12324 67.9446 7.05647 67.5972 7.05647C66.1675 7.05647 65.9136 8.29907 65.9136 9.30126V10.918H68.2252V12.909H65.9136V20.8993H63.4149V12.909H63.4016Z" fill="black"/>
<path d="M69.6955 12.909H67.7981V10.918H69.6955V9.44824C69.6955 7.05647 70.6308 4.93188 73.7308 4.93188C74.2652 4.93188 74.626 4.97199 75.0002 5.07886L74.8398 7.20345C74.5726 7.12324 74.2385 7.05647 73.8778 7.05647C72.448 7.05647 72.1942 8.29907 72.1942 9.30126V10.918H74.5057V12.909H72.1942V20.8993H69.6955V12.909Z" fill="black"/>
<path d="M78.5818 5.17236V12.1873H78.6486C79.1697 11.5459 80.1718 10.6239 82.0024 10.6239C84.8485 10.6239 86.8528 12.9088 86.8528 15.8618C86.8528 18.8148 84.9821 21.1799 81.949 21.1799C80.5593 21.1799 79.1964 20.5384 78.515 19.3893H78.4749V20.8859H76.1098V5.17236H78.6085H78.5818ZM81.4279 12.655C79.5973 12.655 78.5016 14.3385 78.5016 15.9018C78.5016 17.4652 79.5973 19.1087 81.4279 19.1087C83.3654 19.1087 84.3007 17.4252 84.3007 15.8618C84.3007 14.2985 83.3654 12.655 81.4279 12.655Z" fill="black"/>
<path d="M95.4454 19.6299H95.3786C94.8843 20.4984 93.695 21.1532 92.2786 21.1532C90.6753 21.1532 88.5374 20.3915 88.5374 18.0532C88.5374 15.0868 92.2786 14.6593 95.4053 14.6593V14.4054C95.4053 13.1761 94.3631 12.5749 93.1205 12.5749C92.0649 12.5749 91.036 13.0692 90.3947 13.7239L89.0985 12.2007C90.2209 11.1585 91.7977 10.624 93.3209 10.624C96.9019 10.624 97.7704 12.8287 97.7704 14.8196V20.8859H95.4454V19.6165V19.6299ZM95.4053 16.3429H94.8442C93.2675 16.3429 91.036 16.53 91.036 17.9998C91.036 18.9618 91.9312 19.2424 92.7864 19.2424C94.4968 19.2424 95.4053 18.2669 95.4053 16.6903V16.3295V16.3429Z" fill="black"/>
<path d="M106.162 13.5769C105.722 12.9889 104.893 12.4946 103.984 12.4946C103.196 12.4946 102.381 12.7885 102.381 13.5769C102.381 14.3653 103.156 14.5523 104.546 14.8863C106.016 15.2337 107.766 15.9018 107.766 17.8527C107.766 20.2846 105.788 21.1798 103.61 21.1798C102.074 21.1798 100.47 20.5918 99.5083 19.5363L101.152 17.9997C101.686 18.7079 102.622 19.2424 103.704 19.2424C104.426 19.2424 105.307 18.9484 105.307 18.0531C105.307 17.2247 104.532 16.9708 103.023 16.6234C101.54 16.2627 100.07 15.6613 100.07 13.7907C100.07 11.5592 102.06 10.6106 104.038 10.6106C105.468 10.6106 106.978 11.105 107.779 12.1338L106.162 13.5635V13.5769Z" fill="black"/>
<path d="M119.432 16.6903H111.842C111.949 18.1066 113.232 19.1489 114.688 19.1489C115.931 19.1489 116.773 18.6544 117.334 17.8661L119.004 19.2024C118.029 20.5385 116.612 21.1932 114.715 21.1932C111.641 21.1932 109.357 19.2157 109.357 15.9687C109.357 12.7218 111.628 10.624 114.635 10.624C117.428 10.624 119.458 12.4279 119.458 16.0356C119.458 16.2627 119.458 16.4765 119.432 16.7036M116.947 14.8999C116.947 13.6037 116.225 12.4946 114.594 12.4946C113.111 12.4946 111.935 13.5102 111.829 14.8999H116.947Z" fill="black"/>
</svg>
