<svg width="41" height="41" viewBox="0 0 41 41" fill="none" xmlns="http://www.w3.org/2000/svg">
<mask id="mask0_1_830" style="mask-type:luminance" maskUnits="userSpaceOnUse" x="0" y="0" width="41" height="41">
<path d="M40.4688 0.140625H0.46875V40.1406H40.4688V0.140625Z" fill="white"/>
</mask>
<g mask="url(#mask0_1_830)">
<path d="M18.8855 1.47388C19.3855 -0.0261231 21.4688 -0.0261231 22.0522 1.47388C22.2188 1.97388 22.3855 2.47388 22.5522 2.89054C25.0522 9.89054 30.6355 15.5572 37.6355 17.9739C38.1355 18.1405 38.6355 18.3072 39.0522 18.4739C40.5522 18.9739 40.5522 21.0572 39.0522 21.6405C38.5522 21.8072 38.0522 21.9739 37.6355 22.1405C30.6355 24.6405 24.9688 30.2239 22.5522 37.2239C22.3855 37.7239 22.2188 38.2239 22.0522 38.6405C21.5522 40.1405 19.4688 40.1405 18.8855 38.6405C18.7188 38.1405 18.5522 37.6405 18.3855 37.2239C15.8855 30.2239 10.3022 24.5572 3.30217 22.1405C2.80217 21.9739 2.30217 21.8072 1.8855 21.6405C0.385498 21.1405 0.385498 19.0572 1.8855 18.4739C2.3855 18.3072 2.8855 18.1405 3.30217 17.9739C10.3022 15.4739 15.9688 9.89054 18.3855 2.89054C18.5522 2.47388 18.7188 1.97388 18.8855 1.47388Z" fill="black"/>
</g>
</svg>
