<svg width="41" height="41" viewBox="0 0 41 41" fill="none" xmlns="http://www.w3.org/2000/svg">
<path d="M14.9999 5.89071C16.4999 4.39071 17.2499 3.64071 18.1666 3.22404C19.0832 2.80737 20.0832 2.80737 22.1666 2.80737C24.7499 2.80737 27.3332 2.89071 29.9999 2.89071C33.4166 2.97404 35.1666 3.05737 35.6666 4.05737C36.1666 5.14071 35.0832 6.22404 32.6666 8.72404C28.7499 12.6407 24.4999 16.724 20.4999 20.8074C16.4999 20.8074 12.4999 20.8074 8.58325 20.724C5.16658 20.6407 3.41658 20.5574 2.91658 19.5574C2.41658 18.474 3.49991 17.3907 5.91658 14.8907C8.83325 12.0574 11.9166 8.97404 14.9999 5.89071Z" fill="black"/>
<path d="M20.5 20.3906C24.5 20.3906 28.4999 20.3905 32.4166 20.4739C35.8333 20.5572 37.5832 20.6406 38.0832 21.6406C38.5832 22.724 37.5 23.8072 35.0833 26.3072C32.1667 29.3072 29 32.3073 25.9167 35.3906C24.4167 36.8906 23.6667 37.6406 22.75 38.0573C21.8333 38.474 20.8333 38.474 18.75 38.474C16.1667 38.474 13.5833 38.3905 10.9166 38.3905C7.49996 38.3072 5.74996 38.224 5.24996 37.224C4.74996 36.1406 5.83329 35.0572 8.24996 32.5572C12.25 28.5572 16.5 24.474 20.5 20.3906Z" fill="black"/>
</svg>
