<svg width="41" height="41" viewBox="0 0 41 41" fill="none" xmlns="http://www.w3.org/2000/svg">
<path fill-rule="evenodd" clip-rule="evenodd" d="M35.7968 5.39071C37.3801 6.89071 37.5468 9.224 37.6301 13.974C37.6718 15.5157 37.6926 17.0366 37.7135 18.5574C37.7343 20.0782 37.7551 21.599 37.7968 23.1407C37.7968 27.8907 37.6301 30.224 36.1301 31.724C34.5468 33.3074 32.1301 33.3908 27.3801 33.4741H16.3801C14.5468 33.4741 13.6301 33.4741 12.7968 33.7241C11.9635 34.0574 11.2135 34.5573 9.88012 35.724C9.46345 36.0573 9.04679 36.4115 8.63011 36.7657C8.21344 37.1198 7.79678 37.4741 7.38011 37.8073C7.04678 38.0573 6.54678 38.224 6.04678 38.224C4.88011 38.1407 3.88011 37.1408 3.79678 35.9741C3.38011 28.6408 3.29678 21.3073 3.46344 13.974C3.63011 9.30733 3.79678 6.97404 5.29678 5.39071C6.79678 3.80737 9.13012 3.64071 13.8801 3.55737C18.2968 3.47404 22.7968 3.47404 27.2135 3.55737C31.8801 3.72404 34.2135 3.80737 35.7968 5.39071ZM13.8802 16.3907C12.9635 16.474 12.1302 17.224 12.0469 18.1407C11.7969 22.724 16.0469 26.5573 20.5469 26.6407C25.0469 26.5573 29.2969 22.724 29.0469 18.1407C28.9635 17.224 28.1302 16.3907 27.2135 16.3907C22.7969 16.224 18.2969 16.224 13.8802 16.3907Z" fill="black"/>
</svg>
