<svg width="39" height="40" viewBox="0 0 39 40" fill="none" xmlns="http://www.w3.org/2000/svg">
<path fill-rule="evenodd" clip-rule="evenodd" d="M37.4792 16.474C32.8958 11.5574 28.2292 6.80737 23.3125 2.30737C21.2292 0.390706 17.8958 0.390706 15.8125 2.30737C10.9792 6.80737 6.22913 11.5574 1.72913 16.474C-0.104207 18.474 -0.104207 21.8907 1.72913 23.8907C6.22913 28.724 10.9792 33.474 15.8958 38.0574C17.8958 39.8907 21.3125 39.8907 23.3125 38.0574C28.2292 33.474 32.9791 28.8074 37.4792 23.8907C39.3125 21.8907 39.3125 18.474 37.4792 16.474ZM22.0625 15.0574C20.3958 14.974 18.7292 14.974 17.0625 15.0574C15.7292 15.0574 14.4792 16.3074 14.4792 17.6407C14.3958 19.3074 14.3958 20.974 14.4792 22.6407C14.4792 23.974 15.7292 25.1407 17.0625 25.224C18.7292 25.3074 20.3958 25.3074 22.0625 25.224C23.3958 25.224 24.5625 23.974 24.6458 22.6407C24.7292 20.974 24.7292 19.3074 24.6458 17.6407C24.6458 16.3074 23.3958 15.1407 22.0625 15.0574Z" fill="black"/>
</svg>
