<svg width="41" height="41" viewBox="0 0 41 41" fill="none" xmlns="http://www.w3.org/2000/svg">
<g clip-path="url(#clip0_1_860)">
<path d="M27.1823 7.64054C27.1823 11.3225 24.1975 14.3072 20.5156 14.3072C16.8337 14.3072 13.849 11.3225 13.849 7.64054C13.849 3.95864 16.8337 0.973877 20.5156 0.973877C24.1975 0.973877 27.1823 3.95864 27.1823 7.64054Z" fill="black"/>
<path d="M15.5156 13.474C15.5156 17.156 12.5309 20.1407 8.84896 20.1407C5.16706 20.1407 2.1823 17.156 2.1823 13.474C2.1823 9.79212 5.16706 6.80737 8.84896 6.80737C12.5309 6.80737 15.5156 9.79212 15.5156 13.474Z" fill="black"/>
<path d="M15.5156 26.8073C15.5156 30.4892 12.5309 33.474 8.84896 33.474C5.16706 33.474 2.1823 30.4892 2.1823 26.8073C2.1823 23.1254 5.16706 20.1406 8.84896 20.1406C12.5309 20.1406 15.5156 23.1254 15.5156 26.8073Z" fill="black"/>
<path d="M27.1823 32.6405C27.1823 36.3225 24.1975 39.3072 20.5156 39.3072C16.8337 39.3072 13.849 36.3225 13.849 32.6405C13.849 28.9586 16.8337 25.9739 20.5156 25.9739C24.1975 25.9739 27.1823 28.9586 27.1823 32.6405Z" fill="black"/>
<path d="M38.849 26.8073C38.849 30.4892 35.8642 33.474 32.1823 33.474C28.5004 33.474 25.5156 30.4892 25.5156 26.8073C25.5156 23.1254 28.5004 20.1406 32.1823 20.1406C35.8642 20.1406 38.849 23.1254 38.849 26.8073Z" fill="black"/>
<path d="M38.849 13.474C38.849 17.156 35.8642 20.1407 32.1823 20.1407C28.5004 20.1407 25.5156 17.156 25.5156 13.474C25.5156 9.79212 28.5004 6.80737 32.1823 6.80737C35.8642 6.80737 38.849 9.79212 38.849 13.474Z" fill="black"/>
</g>
<defs>
<clipPath id="clip0_1_860">
<rect width="40" height="40" fill="white" transform="translate(0.515625 0.140625)"/>
</clipPath>
</defs>
</svg>
