<svg width="85" height="21" viewBox="0 0 85 21" fill="none" xmlns="http://www.w3.org/2000/svg">
<g clip-path="url(#clip0_0_1)">
<path d="M10.8593 0.796875C9.01736 0.796875 7.29175 1.29487 5.80977 2.16355C5.51123 2.33854 5.38031 2.72747 5.63386 2.96295C5.85695 3.17017 6.15584 3.29688 6.48432 3.29688H15.2342C15.5627 3.29688 15.8616 3.17017 16.0847 2.96295C16.3383 2.72747 16.2073 2.33854 15.9088 2.16355C14.4268 1.29487 12.7012 0.796875 10.8593 0.796875Z" fill="#333333"/>
<path d="M20.8592 10.7969C20.8592 10.1065 20.2996 9.54688 19.6092 9.54688H2.10936C1.419 9.54688 0.859375 10.1065 0.859375 10.7969C0.859375 11.4873 1.419 12.0469 2.10936 12.0469H19.6092C20.2996 12.0469 20.8592 11.4873 20.8592 10.7969Z" fill="#333333"/>
<path d="M16.0847 18.6308C16.3383 18.8663 16.2073 19.2552 15.9088 19.4302C14.4268 20.2989 12.7012 20.7969 10.8593 20.7969C9.01736 20.7969 7.29174 20.2989 5.80977 19.4302C5.51123 19.2552 5.3803 18.8663 5.63385 18.6308C5.85694 18.4236 6.15584 18.2969 6.48432 18.2969H15.2342C15.5627 18.2969 15.8616 18.4236 16.0847 18.6308Z" fill="#333333"/>
<path d="M2.10938 6.42188C2.10938 5.7315 2.66899 5.17188 3.35935 5.17188H18.3592C19.0496 5.17188 19.6092 5.7315 19.6092 6.42188C19.6092 7.11225 19.0496 7.67188 18.3592 7.67188H3.35935C2.66899 7.67188 2.10938 7.11225 2.10938 6.42188Z" fill="#333333"/>
<path d="M2.10938 15.1719C2.10938 14.4815 2.66899 13.9219 3.35935 13.9219H18.3592C19.0496 13.9219 19.6092 14.4815 19.6092 15.1719C19.6092 15.8623 19.0496 16.4219 18.3592 16.4219H3.35935C2.66899 16.4219 2.10938 15.8623 2.10938 15.1719Z" fill="#333333"/>
</g>
<path d="M30.0522 5.09091V16H28.076V5.09091H30.0522ZM34.0352 11.206V16H32.107V7.81818H33.95V9.20845H34.0459C34.2341 8.75035 34.5342 8.38636 34.9461 8.11648C35.3616 7.84659 35.8747 7.71165 36.4855 7.71165C37.0502 7.71165 37.542 7.83239 37.961 8.07386C38.3836 8.31534 38.7103 8.66513 38.9411 9.12322C39.1755 9.58132 39.2909 10.1371 39.2874 10.7905V16H37.3591V11.0888C37.3591 10.5419 37.2171 10.114 36.933 9.80504C36.6524 9.49609 36.2636 9.34162 35.7664 9.34162C35.4291 9.34162 35.129 9.41619 34.8662 9.56534C34.607 9.71094 34.4028 9.92223 34.2536 10.1992C34.108 10.4762 34.0352 10.8118 34.0352 11.206ZM44.8165 16.1598C43.9997 16.1598 43.2984 15.9805 42.7124 15.6218C42.1301 15.2631 41.6808 14.7678 41.3648 14.1357C41.0523 13.5 40.896 12.7685 40.896 11.9411C40.896 11.1101 41.0558 10.3768 41.3754 9.74112C41.695 9.10192 42.146 8.60476 42.7284 8.24964C43.3144 7.89098 44.0068 7.71165 44.8058 7.71165C45.4699 7.71165 46.0576 7.83416 46.569 8.07919C47.0839 8.32067 47.4941 8.66335 47.7994 9.10724C48.1048 9.54759 48.2789 10.0625 48.3215 10.652H46.4784C46.4039 10.2578 46.2263 9.92933 45.9458 9.66655C45.6688 9.40021 45.2977 9.26705 44.8325 9.26705C44.4383 9.26705 44.0921 9.37358 43.7938 9.58665C43.4955 9.79616 43.2629 10.098 43.096 10.4922C42.9326 10.8864 42.8509 11.3587 42.8509 11.9091C42.8509 12.4666 42.9326 12.946 43.096 13.3473C43.2593 13.745 43.4884 14.0522 43.7831 14.2688C44.0814 14.4819 44.4312 14.5884 44.8325 14.5884C45.1166 14.5884 45.3705 14.5352 45.5942 14.4286C45.8215 14.3185 46.0115 14.1605 46.1642 13.9545C46.3169 13.7486 46.4216 13.4982 46.4784 13.2035H48.3215C48.2753 13.7823 48.1048 14.2955 47.8101 14.7429C47.5154 15.1868 47.1141 15.5348 46.6063 15.7869C46.0985 16.0355 45.5019 16.1598 44.8165 16.1598ZM51.8331 5.09091V16H49.9048V5.09091H51.8331ZM53.816 16V7.81818H55.7442V16H53.816ZM54.7854 6.65696C54.48 6.65696 54.2172 6.55575 53.9971 6.35334C53.7769 6.14737 53.6668 5.90057 53.6668 5.61293C53.6668 5.32173 53.7769 5.07493 53.9971 4.87251C54.2172 4.66655 54.48 4.56357 54.7854 4.56357C55.0944 4.56357 55.3572 4.66655 55.5738 4.87251C55.7939 5.07493 55.904 5.32173 55.904 5.61293C55.904 5.90057 55.7939 6.14737 55.5738 6.35334C55.3572 6.55575 55.0944 6.65696 54.7854 6.65696ZM59.6554 11.206V16H57.7271V7.81818H59.5701V9.20845H59.666C59.8542 8.75035 60.1543 8.38636 60.5662 8.11648C60.9817 7.84659 61.4949 7.71165 62.1056 7.71165C62.6703 7.71165 63.1621 7.83239 63.5811 8.07386C64.0037 8.31534 64.3304 8.66513 64.5613 9.12322C64.7956 9.58132 64.911 10.1371 64.9075 10.7905V16H62.9792V11.0888C62.9792 10.5419 62.8372 10.114 62.5531 9.80504C62.2725 9.49609 61.8837 9.34162 61.3865 9.34162C61.0492 9.34162 60.7491 9.41619 60.4863 9.56534C60.2271 9.71094 60.0229 9.92223 59.8738 10.1992C59.7282 10.4762 59.6554 10.8118 59.6554 11.206ZM70.4899 16.1598C69.6696 16.1598 68.9611 15.9893 68.3645 15.6484C67.7715 15.304 67.3152 14.8175 66.9956 14.1889C66.676 13.5568 66.5162 12.8129 66.5162 11.957C66.5162 11.1154 66.676 10.3768 66.9956 9.74112C67.3187 9.10192 67.7697 8.60476 68.3485 8.24964C68.9274 7.89098 69.6074 7.71165 70.3887 7.71165C70.8929 7.71165 71.3688 7.79332 71.8162 7.95668C72.2672 8.11648 72.665 8.36506 73.0094 8.70241C73.3574 9.03977 73.6309 9.46946 73.8297 9.99148C74.0286 10.5099 74.128 11.1278 74.128 11.8452V12.4364H67.4217V11.1367H72.2797C72.2761 10.7674 72.1962 10.4389 72.04 10.1513C71.8837 9.86009 71.6653 9.63104 71.3848 9.46413C71.1078 9.29723 70.7846 9.21378 70.4153 9.21378C70.0211 9.21378 69.6749 9.30966 69.3766 9.50142C69.0783 9.68963 68.8457 9.93821 68.6788 10.2472C68.5154 10.5526 68.432 10.8881 68.4284 11.2539V12.3885C68.4284 12.8643 68.5154 13.2727 68.6895 13.6136C68.8635 13.951 69.1067 14.2102 69.4192 14.3913C69.7317 14.5689 70.0975 14.6577 70.5165 14.6577C70.7971 14.6577 71.051 14.6186 71.2782 14.5405C71.5055 14.4588 71.7026 14.3398 71.8695 14.1836C72.0364 14.0273 72.1625 13.8338 72.2477 13.603L74.0481 13.8054C73.9345 14.2812 73.7179 14.6967 73.3983 15.0518C73.0822 15.4034 72.6774 15.6768 72.1838 15.8722C71.6902 16.0639 71.1255 16.1598 70.4899 16.1598Z" fill="#0D0D0D"/>
<defs>
<clipPath id="clip0_0_1">
<rect width="84" height="20" fill="white" transform="translate(0.609375 0.796875)"/>
</clipPath>
</defs>
</svg>
